<svg xmlns="http://www.w3.org/2000/svg" version="1.1" xmlns:xlink="http://www.w3.org/1999/xlink" xmlns:svgjs="http://svgjs.dev/svgjs" width="1500" height="1518" viewBox="0 0 1500 1518"><g transform="matrix(1,0,0,1,1.3259016393440106,0.6145748987853494)"><svg viewBox="0 0 244 247" data-background-color="#004051" preserveAspectRatio="xMidYMid meet" height="1518" width="1500" xmlns="http://www.w3.org/2000/svg" xmlns:xlink="http://www.w3.org/1999/xlink"><g id="tight-bounds" transform="matrix(1,0,0,1,-0.21567999999996346,-0.09999999999999432)"><svg viewBox="0 0 244.43135999999996 247.2" height="247.2" width="244.43135999999996"><g><svg></svg></g><g><svg viewBox="0 0 244.43135999999996 247.2" height="247.2" width="244.43135999999996"><g transform="matrix(1,0,0,1,0,87.2341242271032)"><svg viewBox="0 0 244.43135999999996 72.73175154579361" height="72.73175154579361" width="244.43135999999996"><g><svg viewBox="0 0 244.43135999999996 72.73175154579361" height="72.73175154579361" width="244.43135999999996"><g><svg viewBox="0 0 244.43135999999996 72.73175154579361" height="72.73175154579361" width="244.43135999999996"><g><svg viewBox="0 0 244.43135999999996 72.73175154579361" height="72.73175154579361" width="244.43135999999996"><g id="textblocktransform"><svg viewBox="0 0 244.43135999999996 72.73175154579361" height="72.73175154579361" width="244.43135999999996" id="textblock"><g><svg viewBox="0 0 244.43135999999996 72.73175154579361" height="72.73175154579361" width="244.43135999999996"><g transform="matrix(1,0,0,1,0,0)"><svg width="244.43135999999996" viewBox="0.8 -32.55 120.65 35.9" height="72.73175154579361" data-palette-color="#32fd6b"><path d="M21.15-2.05L21.15-2.05Q19.95-0.2 19.95 0.35 19.95 0.9 20.4 1.15L20.4 1.15Q20.4 1.2 19.5 1.9L19.5 1.9Q18.7 2.3 17.7 2.3 16.7 2.3 16.25 2.08 15.8 1.85 15.95 1.35L15.95 1.35Q16.65-0.9 21.2-7.68 25.75-14.45 27.3-17.25L27.3-17.25Q30.65-23.3 30.65-26.9L30.65-26.9Q30.65-28.4 30.15-29.45L30.15-29.45Q29.15-31.5 25.4-31.5L25.4-31.5Q19.55-31.5 13.3-26.45L13.3-26.45Q8.3-22.4 5.65-17.88 3-13.35 3-9.8L3-9.8Q3-4.7 7.5-4.6L7.5-4.6Q7.7-4.6 7.9-4.6L7.9-4.6Q13.65-4.6 16.8-8.75L16.8-8.75Q18-10.4 18-11.55 18-12.7 17.5-13L17.5-13Q17.45-13.05 17.45-13.2 17.45-13.35 17.75-13.35L17.75-13.35Q19.05-13.35 19.05-11.65L19.05-11.65Q19.05-10.6 18.03-8.8 17-7 14.4-5.4 11.8-3.8 8.35-3.8 4.9-3.8 2.85-5.95 0.8-8.1 0.8-11.6L0.8-11.6Q0.8-19.5 11.1-27.75L11.1-27.75Q13.75-29.85 18.07-31.2 22.4-32.55 26.35-32.55 30.3-32.55 31.73-31.18 33.15-29.8 33.15-27.5L33.15-27.5Q33.15-24 30.3-18.05L30.3-18.05Q29.4-16.2 26.25-11.3L26.25-11.3 30.1-16.2Q32.9-19.85 39.8-26.6L39.8-26.6Q41.3-28.05 43.13-29.03 44.95-30 46.25-30L46.25-30Q48.05-30 48.05-28.1L48.05-28.1Q48.05-26.45 46.48-23.13 44.9-19.8 43.3-16.82 41.7-13.85 41.35-12.93 41-12 40.85-11.45 40.7-10.9 40.65-10.85L40.65-10.85Q40.8-11.1 43.95-14.68 47.1-18.25 53.25-23.6L53.25-23.6 61.25-30.2Q62.2-31 62.95-31 63.7-31 64.17-29.75 64.65-28.5 64.65-27.73 64.65-26.95 62.25-24.5L62.25-24.5Q56-18.1 51.65-10.5 47.3-2.9 47.3 0.35L47.3 0.35Q47.3 1.2 47.6 1.53 47.9 1.85 48.55 1.73 49.2 1.6 51.28 0.7 53.35-0.2 54-0.35L54-0.35Q54.25-0.25 54.25-0.1L54.25-0.1Q54.25 0.65 51.63 2 49 3.35 47.68 3.35 46.35 3.35 46.05 2.9L46.05 2.9Q45.15 1.6 45.15-0.25L45.15-0.25Q45.15-4.55 49.75-12.6L49.75-12.6Q52.7-17.65 58.85-26.2L58.85-26.2Q54.05-22.3 45.85-14.25 37.65-6.2 35.1-1.65L35.1-1.65Q33.8 0.7 31.95 0.7L31.95 0.7Q31.1 0.7 31.1 0.1L31.1 0.1Q31.1-0.1 32.13-1.7 33.15-3.3 36.65-9.2L36.65-9.2Q45.25-24.15 45.25-27.2L45.25-27.2Q45.25-28 44.7-28L44.7-28Q43.9-28 42.35-26.65L42.35-26.65Q36.8-22 30.55-14.5 24.3-7 21.15-2.05ZM77.95-2.05L77.95-2.05Q76.75-0.2 76.75 0.35 76.75 0.9 77.2 1.15L77.2 1.15Q77.2 1.2 76.3 1.9L76.3 1.9Q75.5 2.3 74.5 2.3 73.5 2.3 73.05 2.08 72.6 1.85 72.75 1.35L72.75 1.35Q73.45-0.9 78-7.68 82.55-14.45 84.1-17.25L84.1-17.25Q87.45-23.3 87.45-26.9L87.45-26.9Q87.45-28.4 86.95-29.45L86.95-29.45Q85.95-31.5 82.2-31.5L82.2-31.5Q76.35-31.5 70.1-26.45L70.1-26.45Q65.1-22.4 62.45-17.88 59.8-13.35 59.8-9.8L59.8-9.8Q59.8-4.7 64.3-4.6L64.3-4.6Q64.5-4.6 64.7-4.6L64.7-4.6Q70.45-4.6 73.6-8.75L73.6-8.75Q74.8-10.4 74.8-11.55 74.8-12.7 74.3-13L74.3-13Q74.25-13.05 74.25-13.2 74.25-13.35 74.55-13.35L74.55-13.35Q75.85-13.35 75.85-11.65L75.85-11.65Q75.85-10.6 74.82-8.8 73.8-7 71.2-5.4 68.6-3.8 65.15-3.8 61.7-3.8 59.65-5.95 57.6-8.1 57.6-11.6L57.6-11.6Q57.6-19.5 67.9-27.75L67.9-27.75Q70.55-29.85 74.87-31.2 79.2-32.55 83.15-32.55 87.1-32.55 88.52-31.18 89.95-29.8 89.95-27.5L89.95-27.5Q89.95-24 87.1-18.05L87.1-18.05Q86.2-16.2 83.05-11.3L83.05-11.3 86.9-16.2Q89.7-19.85 96.6-26.6L96.6-26.6Q98.1-28.05 99.92-29.03 101.75-30 103.05-30L103.05-30Q104.85-30 104.85-28.1L104.85-28.1Q104.85-26.45 103.27-23.13 101.7-19.8 100.1-16.82 98.5-13.85 98.15-12.93 97.8-12 97.65-11.45 97.5-10.9 97.45-10.85L97.45-10.85Q97.6-11.1 100.75-14.68 103.9-18.25 110.05-23.6L110.05-23.6 118.05-30.2Q119-31 119.75-31 120.5-31 120.97-29.75 121.45-28.5 121.45-27.73 121.45-26.95 119.05-24.5L119.05-24.5Q112.8-18.1 108.45-10.5 104.1-2.9 104.1 0.35L104.1 0.35Q104.1 1.2 104.4 1.53 104.7 1.85 105.35 1.73 106 1.6 108.07 0.7 110.15-0.2 110.8-0.35L110.8-0.35Q111.05-0.25 111.05-0.1L111.05-0.1Q111.05 0.65 108.42 2 105.8 3.35 104.47 3.35 103.15 3.35 102.85 2.9L102.85 2.9Q101.95 1.6 101.95-0.25L101.95-0.25Q101.95-4.55 106.55-12.6L106.55-12.6Q109.5-17.65 115.65-26.2L115.65-26.2Q110.85-22.3 102.65-14.25 94.45-6.2 91.9-1.65L91.9-1.65Q90.6 0.7 88.75 0.7L88.75 0.7Q87.9 0.7 87.9 0.1L87.9 0.1Q87.9-0.1 88.92-1.7 89.95-3.3 93.45-9.2L93.45-9.2Q102.05-24.15 102.05-27.2L102.05-27.2Q102.05-28 101.5-28L101.5-28Q100.7-28 99.15-26.65L99.15-26.65Q93.6-22 87.35-14.5 81.1-7 77.95-2.05Z" opacity="1" transform="matrix(1,0,0,1,0,0)" fill="#32fd6b" class="wordmark-text-0" data-fill-palette-color="primary" id="text-0"></path></svg></g></svg></g></svg></g></svg></g><g></g></svg></g></svg></g></svg></g><path d="M0 81.234L0 1 244.431 1 244.431 81.234 237.872 81.234 237.872 7.559 6.559 7.559 6.559 81.234 0 81.234M0 165.966L0 246.2 244.431 246.2 244.431 165.966 237.872 165.966 237.872 239.641 6.559 239.641 6.559 165.966 0 165.966" fill="#32fd6b" stroke="transparent" data-fill-palette-color="tertiary"></path></svg></g><defs></defs></svg><rect width="244.43135999999996" height="247.2" fill="none" stroke="none" visibility="hidden"></rect></g></svg></g></svg>